<?xml version="1.0" standalone="no"?>
<!DOCTYPE svg PUBLIC "-//W3C//DTD SVG 20010904//EN"
 "http://www.w3.org/TR/2001/REC-SVG-20010904/DTD/svg10.dtd">
<svg version="1.0" xmlns="http://www.w3.org/2000/svg"
 width="190.000000pt" height="114.000000pt" viewBox="0 0 190.000000 114.000000"
 preserveAspectRatio="xMidYMid meet">
<metadata>
Created by potrace 1.16, written by Peter Selinger 2001-2019
</metadata>
<g transform="translate(0.000000,114.000000) scale(0.100000,-0.100000)"
fill="#000000" stroke="none">
<path d="M270 926 c-105 -29 -196 -102 -241 -193 -21 -42 -24 -62 -24 -163 0
-101 3 -121 24 -163 13 -27 44 -68 69 -93 122 -123 307 -147 455 -61 44 26
116 97 136 136 11 20 10 21 -53 21 -64 0 -66 1 -97 40 -34 42 -67 52 -89 25
-19 -22 -67 -19 -80 6 -9 16 -8 26 5 45 18 27 46 31 69 9 8 -8 26 -15 41 -15
16 0 42 -15 69 -41 43 -38 47 -40 103 -37 46 2 59 7 61 20 3 16 -5 18 -65 18
-67 0 -70 1 -108 40 l-39 40 -97 0 c-74 0 -100 -4 -109 -15 -26 -32 -80 -12
-80 30 0 42 54 62 80 30 10 -12 36 -15 113 -15 l101 0 41 -38 c39 -37 41 -38
108 -34 46 3 67 8 67 17 0 9 -24 15 -74 20 -66 6 -77 10 -107 41 l-33 34 -174
0 c-141 0 -176 -3 -188 -15 -23 -22 -51 -18 -69 9 -13 19 -14 29 -5 45 13 25
67 29 76 6 5 -13 35 -15 182 -15 l176 0 42 -41 42 -42 66 8 c64 6 66 7 66 35
0 85 -85 213 -177 267 -83 48 -194 64 -283 39z"/>
<path d="M1654 658 c-4 -6 -2 -14 4 -16 15 -5 17 -132 2 -132 -5 0 -10 -7 -10
-15 0 -22 115 -22 124 1 11 28 6 150 -6 162 -16 16 -105 16 -114 0z"/>
<path d="M1794 659 c-4 -7 -2 -15 4 -17 15 -5 17 -132 2 -132 -5 0 -10 -7 -10
-15 0 -12 13 -15 55 -15 l55 0 0 55 c0 30 -5 65 -12 78 -6 12 -14 29 -18 37
-9 19 -66 25 -76 9z"/>
<path d="M1020 634 c0 -8 -7 -22 -15 -30 -9 -9 -15 -11 -15 -4 0 7 -16 10 -42
8 l-43 -3 0 -60 0 -60 45 0 c36 0 45 4 48 19 4 16 0 18 -29 13 l-34 -7 25 20
c14 11 28 20 33 20 4 0 7 7 7 15 0 8 4 15 9 15 6 0 11 -21 13 -47 3 -41 6 -48
26 -51 15 -2 22 2 22 12 0 9 -4 16 -10 16 -5 0 -10 16 -10 36 0 28 3 35 18 32
12 -2 20 -18 26 -51 7 -35 14 -47 27 -47 11 0 21 10 25 25 7 28 24 24 24 -6 0
-15 6 -20 22 -17 17 2 24 14 34 58 17 73 18 70 -12 70 -24 0 -25 -3 -19 -32 5
-25 4 -29 -4 -18 -6 8 -11 23 -11 33 0 10 -8 17 -19 17 -14 0 -22 -11 -29 -37
l-10 -38 -1 38 c-1 35 -2 37 -36 37 -28 0 -35 4 -35 20 0 11 -7 20 -15 20 -8
0 -15 -7 -15 -16z"/>
</g>
</svg>
